<?xml version="1.0" encoding="UTF-8"?>
<svg version="1.1" xmlns="http://www.w3.org/2000/svg" width="512" height="512">
<path d="M0 0 C1.74446685 -0.00898481 3.48893299 -0.01810693 5.23339844 -0.02735901 C8.86411401 -0.0437347 12.49473848 -0.05153018 16.12548828 -0.05444336 C20.77727608 -0.05986753 25.42821216 -0.09776023 30.07975769 -0.14318752 C33.670829 -0.17288853 37.26169127 -0.18016512 40.85287476 -0.18116951 C42.5689186 -0.18537259 44.28496301 -0.19781054 46.00088501 -0.21868706 C48.39186772 -0.24550607 50.78081941 -0.24081039 53.171875 -0.22827148 C54.23008705 -0.25052292 54.23008705 -0.25052292 55.30967712 -0.27322388 C58.81699285 -0.22077252 60.43782292 0.1565478 63.12586975 2.46636963 C65.04653869 6.03892683 65.1886702 8.39563084 65.18920898 12.44604492 C65.19731346 13.48641655 65.19731346 13.48641655 65.20558167 14.54780579 C65.21806499 16.8369955 65.2015599 19.12492435 65.18359375 21.4140625 C65.18374898 23.02289393 65.18524186 24.63172574 65.18800354 26.24055481 C65.18938813 29.6191149 65.17683773 32.99725093 65.15405273 36.37573242 C65.12596443 40.65290603 65.12832288 44.92935964 65.14114285 49.20658398 C65.14819598 52.53662468 65.14019808 55.86650704 65.12788582 59.19652748 C65.12344281 60.76977233 65.12297007 62.34303466 65.12695122 63.91628075 C65.14620707 78.24694891 63.8672039 92.82453917 59.0625 106.43359375 C58.81089111 107.16271973 58.55928223 107.8918457 58.30004883 108.64306641 C53.56547272 121.76222845 46.62622756 133.6741702 37.6875 144.37109375 C36.85605469 145.36625 36.02460938 146.36140625 35.16796875 147.38671875 C24.88382921 159.30380644 12.60379206 168.14850512 -1.3125 175.37109375 C-2.21226562 175.84160156 -3.11203125 176.31210938 -4.0390625 176.796875 C-9.46577112 179.44464975 -15.04136655 181.33088096 -20.8125 183.05859375 C-21.48837158 183.26121826 -22.16424316 183.46384277 -22.8605957 183.67260742 C-33.86063304 186.81941366 -44.42641023 187.65298594 -55.82421875 187.56640625 C-57.28823145 187.56266672 -58.75224669 187.5598242 -60.21626282 187.55783081 C-64.03188229 187.55026822 -67.84734459 187.53068504 -71.66290283 187.50842285 C-75.5714709 187.48780363 -79.48006486 187.47879505 -83.38867188 187.46875 C-91.03001884 187.44743058 -98.67123723 187.41338617 -106.3125 187.37109375 C-106.37625824 188.25687103 -106.44001648 189.14264832 -106.50570679 190.05526733 C-106.6350914 191.80367416 -106.6350914 191.80367416 -106.76708984 193.58740234 C-106.85147308 194.74130463 -106.93585632 195.89520691 -107.02279663 197.08407593 C-107.38021716 201.13942284 -108.02540833 205.03314754 -108.9375 208.99609375 C-109.10789795 209.74552246 -109.2782959 210.49495117 -109.45385742 211.26708984 C-112.30134696 223.11667728 -116.89854224 234.36778275 -121.9375 245.43359375 C-134.48859185 273.06277255 -134.80868736 304.83190456 -124.90234375 333.31640625 C-122.7404938 339.02323289 -120.11852835 344.53408502 -117.56030273 350.07104492 C-110.3125 365.91440131 -110.3125 365.91440131 -110.3125 373.37109375 C-109.70156494 373.47413818 -109.09062988 373.57718262 -108.46118164 373.68334961 C-102.24033907 374.81749691 -96.59208705 376.53353795 -90.75 378.93359375 C-89.45690918 379.46194824 -89.45690918 379.46194824 -88.13769531 380.00097656 C-69.67819248 387.70091619 -53.71681876 397.88848289 -39.23046875 411.7265625 C-37.31186529 413.58100098 -37.31186529 413.58100098 -34.3125 414.37109375 C-32.27232138 413.95254164 -30.23352434 413.5237794 -28.20898438 413.03515625 C0.88960413 406.09296782 29.584893 410.90809938 55.50390625 425.40625 C82.2354422 441.9043636 99.5629835 466.87183202 106.91015625 497.296875 C108.64955534 505.73014883 108.64955534 505.73014883 106.14336967 510.0048641 C102.89727237 513.13247782 100.30361299 513.0692941 96.02249146 513.00029945 C95.24242257 513.00756666 94.46235368 513.01483386 93.65864635 513.02232128 C91.0286202 513.04065839 88.40003652 513.02317636 85.77001953 513.00601196 C83.87200229 513.01176973 81.97399062 513.01970852 80.07599068 513.02964818 C74.84787587 513.0505921 69.62021524 513.04017209 64.39209843 513.02471709 C58.75874254 513.01343832 53.12546663 513.030849 47.49212646 513.0446167 C36.45149381 513.06689082 25.41103077 513.06202932 14.37039137 513.04755349 C5.40025403 513.03627766 -3.56983565 513.03472317 -12.53997803 513.04017258 C-13.81494735 513.04093874 -15.08991667 513.04170491 -16.40352142 513.04249429 C-18.99331237 513.04409286 -21.58310331 513.04571392 -24.17289424 513.04735725 C-47.78412069 513.06121991 -71.39523329 513.04682537 -95.00644061 513.02064426 C-116.57009859 512.99691541 -138.13360894 512.99903852 -159.69726562 513.02294922 C-183.91276174 513.04971051 -208.12815285 513.06025358 -232.34366798 513.0448879 C-234.9241193 513.0432951 -237.50457063 513.04172324 -240.08502197 513.04017258 C-241.3547699 513.0394012 -242.62451782 513.03862982 -243.93274295 513.03783507 C-252.89575418 513.03351158 -261.85871317 513.04081859 -270.82171631 513.05257034 C-281.73942812 513.06656985 -292.65696012 513.0628491 -303.57465124 513.03616662 C-309.14880875 513.02299415 -314.72266607 513.01793445 -320.29682159 513.03441238 C-325.39438054 513.04925392 -330.49135958 513.04121984 -335.58886552 513.01452462 C-337.43805879 513.00891497 -339.28730053 513.01183529 -341.13646293 513.02390356 C-343.64084616 513.0390009 -346.14321535 513.02362955 -348.64749146 513.00029945 C-349.73701264 513.0178582 -349.73701264 513.0178582 -350.84854436 513.03577167 C-354.5993441 512.96541585 -356.04008776 512.63716271 -358.76763725 509.97312582 C-361.78468209 504.89147865 -360.19950948 499.87146131 -358.80371094 494.36328125 C-351.8327748 469.09794434 -336.63493735 447.72214335 -313.87109375 434.2890625 C-302.86416273 428.21531371 -291.10924652 423.14305314 -278.484375 422.03515625 C-271.49805144 421.67234177 -271.49805144 421.67234177 -265.296875 418.890625 C-264.22216452 417.57437605 -263.19471108 416.21868927 -262.20703125 414.8359375 C-242.20153656 388.80817019 -202.59841447 373.98158786 -171.24438477 369.38916016 C-157.49457951 367.59719741 -143.03827299 367.35022022 -129.3125 369.37109375 C-129.82039062 368.17355469 -130.32828125 366.97601563 -130.8515625 365.7421875 C-132.66489047 361.4591953 -134.46567236 357.17104503 -136.26074219 352.88037109 C-136.90949305 351.33258526 -137.56067158 349.78581127 -138.21582031 348.24072266 C-144.59376803 333.18104896 -149.47594995 317.48564085 -149.359375 301 C-149.35260742 299.75420166 -149.34583984 298.50840332 -149.33886719 297.22485352 C-149.32581543 295.81224243 -149.32581543 295.81224243 -149.3125 294.37109375 C-150.72165932 294.3810865 -150.72165932 294.3810865 -152.1592865 294.39128113 C-161.08665241 294.45254785 -170.01397472 294.49728236 -178.94150448 294.52653027 C-183.5293713 294.54207322 -188.11706611 294.56309891 -192.70483398 294.59741211 C-197.14636954 294.63041725 -201.58774145 294.64803181 -206.02939034 294.65572548 C-207.70955539 294.66119622 -209.38971323 294.6718747 -211.06980705 294.68828392 C-248.21568395 295.03608787 -282.07605785 281.46504291 -309.3125 256.37109375 C-310.52486328 255.28248047 -310.52486328 255.28248047 -311.76171875 254.171875 C-337.69049219 229.73272589 -352.04946827 193.54378956 -353.59246826 158.34082031 C-353.73497209 153.34034244 -353.73109716 148.34188275 -353.7109375 143.33984375 C-353.7129669 141.52095423 -353.71588546 139.7020655 -353.71963501 137.88317871 C-353.72399973 134.12207074 -353.71780794 130.36117994 -353.70361328 126.60009766 C-353.68632528 121.78631569 -353.69652156 116.9730285 -353.71433067 112.15926361 C-353.72516042 108.4257634 -353.7217293 104.69238128 -353.7139473 100.95887756 C-353.71195323 99.18229614 -353.71437654 97.40570385 -353.72138596 95.62913513 C-353.72900892 93.16066794 -353.71739392 90.69301579 -353.70068359 88.22460938 C-353.70979263 87.13689491 -353.70979263 87.13689491 -353.71908569 86.02720642 C-353.66419081 81.64767327 -353.0049161 78.85558414 -350.3125 75.37109375 C-347.18081658 73.80525204 -343.83921361 74.21491132 -340.40063477 74.20996094 C-339.58230164 74.20499603 -338.76396851 74.20003113 -337.9208374 74.19491577 C-335.19851851 74.18025357 -332.47625825 74.17347871 -329.75390625 74.16796875 C-327.85172017 74.16221226 -325.94953409 74.15645459 -324.04734802 74.1506958 C-320.04319998 74.14016864 -316.03907206 74.13433996 -312.03491211 74.13085938 C-306.95633653 74.1254286 -301.87803645 74.10152621 -296.79954624 74.07288742 C-292.85873203 74.05404208 -288.91798058 74.04904355 -284.97712517 74.0475235 C-283.10883039 74.0445358 -281.24053564 74.03664249 -279.37228584 74.02333832 C-263.36574333 73.91767013 -247.53769864 75.20678298 -232.1875 80.05859375 C-231.36967041 80.31133057 -230.55184082 80.56406738 -229.70922852 80.82446289 C-205.60810232 88.5754969 -182.35944655 103.68158877 -166.3125 123.37109375 C-165.52746094 124.33015625 -164.74242187 125.28921875 -163.93359375 126.27734375 C-157.85070466 133.85956125 -152.8066704 141.74880467 -148.3125 150.37109375 C-147.70535156 151.51964844 -147.09820312 152.66820312 -146.47265625 153.8515625 C-135.69740216 175.07793703 -133.16124496 197.98536172 -131.3125 221.37109375 C-130.50943646 218.81171187 -129.72016016 216.2492241 -128.9375 213.68359375 C-128.71578125 212.98169922 -128.4940625 212.27980469 -128.265625 211.55664062 C-124.67711181 199.68288375 -124.02180786 187.88261038 -124.00753975 175.57647324 C-124.003808 172.982487 -123.98689886 170.38886065 -123.96678162 167.79495239 C-123.91202585 160.42912577 -123.88087837 153.06324814 -123.85620117 145.69726562 C-123.84011005 141.16281359 -123.80967602 136.62861947 -123.77143669 132.09430313 C-123.7599769 130.39072583 -123.75385805 128.68710202 -123.75375557 126.98348618 C-123.75087303 91.81408789 -112.99859039 59.82034933 -88.28515625 34.25 C-64.33328643 10.49135535 -33.15765559 0.08902111 0 0 Z " fill="#192336" transform="translate(382.3125,-0.37109375)"/>
<path d="M0 0 C0.7105957 -0.00067474 1.42119141 -0.00134949 2.15332031 -0.00204468 C12.8723647 0.01410756 23.0236308 0.4826004 33.4375 3.25 C34.08992676 3.42160645 34.74235352 3.59321289 35.41455078 3.77001953 C57.97737509 9.85236123 79.48686207 20.70327546 96.375 37 C97.04088135 37.64114746 97.7067627 38.28229492 98.39282227 38.94287109 C99.68944264 40.20675256 100.9719458 41.48532251 102.23803711 42.77978516 C105.8373871 46.35694765 105.8373871 46.35694765 110.62890625 47.73046875 C113.06554273 47.31363108 115.14543801 46.83861308 117.4375 45.9375 C140.64388314 37.82878043 165.34153975 39.84891653 187.4375 50.25 C194.79566447 53.80221733 201.20265372 57.9801995 207.4375 63.25 C208.25089844 63.91773438 209.06429688 64.58546875 209.90234375 65.2734375 C222.51769175 76.04216291 232.61407456 91.27240323 237.4375 107.25 C237.4375 108.57 237.4375 109.89 237.4375 111.25 C95.5375 111.25 -46.3625 111.25 -192.5625 111.25 C-191.64519349 105.74616096 -190.44905759 102.3191505 -188 97.5 C-187.46427368 96.44220337 -187.46427368 96.44220337 -186.91772461 95.36303711 C-183.79220991 89.3745811 -180.13601414 84.23451828 -175.5625 79.25 C-174.89863281 78.49460937 -174.23476562 77.73921875 -173.55078125 76.9609375 C-162.59812073 65.17822323 -146.45500125 55.97497324 -130.5625 53.25 C-129.12267207 53.22035849 -127.68228812 53.21299742 -126.2421875 53.22265625 C-117.19748769 53.13665869 -111.52278401 52.13413317 -104.93139648 45.59204102 C-102.10654999 42.55302826 -99.33775424 39.46635306 -96.57373047 36.37207031 C-72.40458394 10.87095091 -33.89384223 0.0290187 0 0 Z " fill="#C69E87" transform="translate(233.5625,384.75)"/>
<path d="M0 0 C8.99817206 -0.04667557 17.9963014 -0.08204589 26.99456882 -0.10362434 C31.17440174 -0.11398939 35.35415084 -0.12801266 39.53393555 -0.15087891 C43.57993817 -0.17287063 47.62586101 -0.18462309 51.67191887 -0.18975449 C53.20300487 -0.19340365 54.73408732 -0.20052677 56.26513863 -0.21146011 C69.98755267 -0.30540943 83.20496681 0.74290991 96.4375 4.6875 C97.3229248 4.94732666 98.20834961 5.20715332 99.12060547 5.47485352 C130.66242604 15.03737016 157.44822539 36.21589793 173.125 65.3515625 C181.77041722 81.9697763 188.21153256 99.92171087 188.11352539 118.86303711 C188.11367142 119.61508423 188.11381744 120.36713135 188.1139679 121.14196777 C188.11327662 123.60379011 188.10552131 126.06553479 188.09765625 128.52734375 C188.09578928 130.2436977 188.09436669 131.96005219 188.09336853 133.67640686 C188.08956533 138.17592867 188.07975398 142.67541779 188.06866455 147.17492676 C188.05840302 151.77351438 188.05386078 156.37210733 188.04882812 160.97070312 C188.03812959 169.98048305 188.02107977 178.9902388 188 188 C178.88871465 188.0467001 169.7774716 188.08205799 160.66609192 188.10362434 C156.43360107 188.11398419 152.20119315 188.12799749 147.96875 188.15087891 C143.87087205 188.17288976 139.77307297 188.18462695 135.67514038 188.18975449 C134.12534344 188.19340032 132.57554995 188.20051647 131.02578735 188.21146011 C117.68192167 188.30178938 104.13490606 187.81845771 91.3125 183.75 C90.6102832 183.53456543 89.90806641 183.31913086 89.18457031 183.09716797 C82.50732961 180.97507353 76.23941425 178.18241481 70 175 C68.93265625 174.47664062 67.8653125 173.95328125 66.765625 173.4140625 C36.89578535 158.19330689 16.16846741 131.17720644 5.75 99.75 C5.51555176 99.06107666 5.28110352 98.37215332 5.03955078 97.66235352 C-1.16063362 77.80885566 -0.37638649 57.31966852 -0.20599365 36.7824707 C-0.17486659 32.62520981 -0.16151084 28.46789162 -0.14648438 24.31054688 C-0.11466299 16.20687717 -0.0637129 8.10348157 0 0 Z " fill="#9BD4AF" transform="translate(45,90)"/>
<path d="M0 0 C1.30089569 0.00007553 2.60179138 0.00015106 3.94210815 0.00022888 C5.34698526 0.00533438 6.75186197 0.01055035 8.15673828 0.01586914 C9.60547842 0.01773616 11.0542192 0.01915872 12.50296021 0.02015686 C16.30051441 0.02395966 20.09802986 0.03377066 23.89556885 0.04486084 C27.77689083 0.05512324 31.65821912 0.0596648 35.53955078 0.06469727 C43.14373504 0.07539509 50.74788746 0.09244441 58.35205078 0.11352539 C58.42238363 7.49523205 58.47527555 14.87686341 58.5074873 22.25884056 C58.52296797 25.68871492 58.5438718 29.11835572 58.57836914 32.5480957 C58.94241952 69.77936697 58.94241952 69.77936697 52.16455078 86.86352539 C51.86339355 87.64663086 51.56223633 88.42973633 51.25195312 89.23657227 C46.50198976 101.19076872 40.00022286 111.5483367 31.35205078 121.11352539 C30.53091797 122.02875977 29.70978516 122.94399414 28.86376953 123.88696289 C11.76252545 141.97627886 -13.16449896 154.02531156 -38.11369324 155.28907776 C-41.87148494 155.34301368 -45.62427122 155.33881131 -49.38232422 155.30883789 C-50.75522656 155.30509636 -52.12813161 155.3022548 -53.5010376 155.30026245 C-57.07169285 155.29271552 -60.642179 155.27314683 -64.21276855 155.25085449 C-67.87343052 155.23020051 -71.53412047 155.22121943 -75.19482422 155.21118164 C-82.34593403 155.18989009 -89.49693044 155.15586581 -96.64794922 155.11352539 C-96.69457852 147.106609 -96.72997215 139.09975069 -96.75157356 131.09273148 C-96.76194848 127.37353928 -96.7759905 123.65444094 -96.79882812 119.93530273 C-96.82078377 116.33669887 -96.83256496 112.73818448 -96.8377037 109.13951874 C-96.84312102 107.11912583 -96.85869627 105.09876821 -96.87454224 103.07843018 C-96.87788379 75.19784308 -86.37914196 49.75157744 -66.89794922 29.86352539 C-49.55988484 12.9075287 -24.65773177 -0.04797224 0 0 Z " fill="#9BD4AF" transform="translate(372.64794921875,15.886474609375)"/>
<path d="M0 0 C17.1084375 -0.061875 17.1084375 -0.061875 34.5625 -0.125 C38.13263916 -0.14320801 41.70277832 -0.16141602 45.38110352 -0.18017578 C49.82019043 -0.18920898 49.82019043 -0.18920898 51.91368103 -0.19088745 C53.34220129 -0.19391166 54.77071721 -0.20084489 56.19920349 -0.21115112 C69.94511512 -0.30516322 83.18165455 0.73596057 96.4375 4.6875 C97.3229248 4.94732666 98.20834961 5.20715332 99.12060547 5.47485352 C130.66242604 15.03737016 157.44822539 36.21589793 173.125 65.3515625 C181.77041722 81.9697763 188.21153256 99.92171087 188.11352539 118.86303711 C188.11367142 119.61508423 188.11381744 120.36713135 188.1139679 121.14196777 C188.11327662 123.60379011 188.10552131 126.06553479 188.09765625 128.52734375 C188.09578928 130.2436977 188.09436669 131.96005219 188.09336853 133.67640686 C188.08956533 138.17592867 188.07975398 142.67541779 188.06866455 147.17492676 C188.05659625 152.58319676 188.05203772 157.99147775 188.04621124 163.39975739 C188.03654092 171.59986094 188.01736902 179.79989287 188 188 C164.24 188 140.48 188 116 188 C116 187.67 116 187.34 116 187 C135.14 186.67 154.28 186.34 174 186 C168.17601562 180.19921875 162.35203125 174.3984375 156.3515625 168.421875 C152.20049958 164.28232753 148.05007086 160.14215186 143.90055084 156.00105858 C138.52247929 150.63407702 133.14292449 145.26860971 127.7578125 139.90869141 C123.03948846 135.21243106 118.32639883 130.51096106 113.61649704 125.80625153 C111.81687228 124.010328 110.0154854 122.21616848 108.21232986 120.42378998 C105.69109355 117.9170277 103.17614124 115.40412086 100.66259766 112.88964844 C99.91237839 112.14661972 99.16215912 111.403591 98.38920593 110.63804626 C97.70491013 109.95100113 97.02061432 109.26395599 96.31558228 108.55609131 C95.72010401 107.96245663 95.12462574 107.36882195 94.51110268 106.75719833 C91.76294615 103.56148162 90.97541563 101.70065461 91.125 97.4375 C92 94 92 94 93.6875 92.0625 C96.92461995 90.57517462 98.45144696 90.31758595 102 91 C107.66951454 95.18514704 112.60936793 100.47156618 117.5625 105.46484375 C118.23925781 106.14301651 118.91601562 106.82118927 119.61328125 107.51991272 C121.74457675 109.65674305 123.87234218 111.79704823 126 113.9375 C127.45679779 115.39932123 128.91382701 116.86091187 130.37109375 118.32226562 C133.91673973 121.878854 137.45922739 125.43856016 141 129 C141.15878226 119.40672874 141.20322749 110.09564141 139.4375 100.625 C139.26041504 99.65731689 139.08333008 98.68963379 138.90087891 97.69262695 C134.59063133 75.73268975 124.34383172 56.0650088 110 39 C109.26007813 38.10796875 108.52015625 37.2159375 107.7578125 36.296875 C99.01586439 26.15497079 88.38835387 18.296784 77.0597229 11.27671814 C75.782131 10.48480348 74.51007462 9.683788 73.24716187 8.8686676 C59.21778266 0.05141625 44.53336875 0.88232065 28.4375 1 C19.383125 1 10.32875 1 1 1 C1 24.1 1 47.2 1 71 C0.67 71 0.34 71 0 71 C0 47.57 0 24.14 0 0 Z " fill="#79C494" transform="translate(45,90)"/>
<path d="M0 0 C11.88 0 23.76 0 36 0 C36.06337884 7.37541936 36.12342493 14.74981934 36.15525055 22.12527466 C36.17091816 25.56182834 36.19175383 28.99815034 36.22631836 32.43457031 C36.59036874 69.66584158 36.59036874 69.66584158 29.8125 86.75 C29.51134277 87.53310547 29.21018555 88.31621094 28.89990234 89.12304688 C24.14993898 101.07724333 17.64817207 111.43481131 9 121 C8.17886719 121.91523438 7.35773438 122.83046875 6.51171875 123.7734375 C-10.41366653 141.67673393 -35.62530525 154.26715332 -60.41796875 155.1171875 C-63.28219349 155.12390315 -66.13739238 155.09135982 -69 155 C-66.4016187 153.2677458 -63.78925915 151.85009557 -61.01147461 150.43701172 C-50.42231877 145.00647132 -41.335589 138.5549466 -33 130 C-32.34 130 -31.68 130 -31 130 C-30.73445313 129.41089844 -30.46890625 128.82179687 -30.1953125 128.21484375 C-28.96863174 125.94187646 -27.6558766 124.42206649 -25.875 122.5625 C-18.70061512 114.53615692 -13.44838002 104.76083385 -9 95 C-8.64164062 94.21367188 -8.28328125 93.42734375 -7.9140625 92.6171875 C-1.9190994 78.59889033 -0.86761736 64.26165709 -0.68359375 49.21875 C-0.66298677 47.79528247 -0.64198942 46.37182055 -0.62062073 44.94836426 C-0.56578615 41.22652768 -0.51620889 37.50463947 -0.46777344 33.78271484 C-0.40837388 29.30379674 -0.34236132 24.82497168 -0.27747345 20.34613037 C-0.17995078 13.5641444 -0.09076266 6.78209497 0 0 Z " fill="#7AC595" transform="translate(395,16)"/>
<path d="M0 0 C2.28586172 1.73135076 4.48582021 3.53181934 6.67578125 5.3828125 C7.48917969 6.05054688 8.30257812 6.71828125 9.140625 7.40625 C21.755973 18.17497541 31.85235581 33.40521573 36.67578125 49.3828125 C36.67578125 50.7028125 36.67578125 52.0228125 36.67578125 53.3828125 C21.49578125 53.3828125 6.31578125 53.3828125 -9.32421875 53.3828125 C-10.97421875 48.4328125 -12.62421875 43.4828125 -14.32421875 38.3828125 C-15.69810081 35.33165971 -17.03296268 32.47746046 -18.63671875 29.5703125 C-19.02061768 28.8602002 -19.4045166 28.15008789 -19.80004883 27.41845703 C-23.05766511 21.54845605 -26.88402623 16.41758804 -31.32421875 11.3828125 C-31.76636719 10.79886719 -32.20851563 10.21492188 -32.6640625 9.61328125 C-40.07695672 -0.00770913 -55.39517818 -12.72417038 -67.57421875 -14.5546875 C-68.93546875 -14.585625 -68.93546875 -14.585625 -70.32421875 -14.6171875 C-70.32421875 -14.9471875 -70.32421875 -15.2771875 -70.32421875 -15.6171875 C-46.15636926 -20.32915816 -20.05359481 -13.95325757 0 0 Z " fill="#B27E5F" transform="translate(434.32421875,442.6171875)"/>
<path d="M0 0 C1.78372955 1.31931782 1.78372955 1.31931782 3.69885254 3.05378723 C4.40391434 3.69112604 5.10897614 4.32846485 5.83540344 4.98511696 C9.29036851 8.20112066 12.6942307 11.46375593 16.06835938 14.7644043 C17.21127945 15.87819206 17.21127945 15.87819206 18.37728882 17.01448059 C25.33378628 23.80352062 32.25576644 30.62776056 39.16686249 37.46298504 C43.79942566 42.04398389 48.44296565 46.61252434 53.11425781 51.15405273 C57.64987973 55.56421857 62.15537909 60.00316555 66.64131165 64.46384621 C68.35020554 66.15313737 70.0694671 67.83200881 71.79924011 69.49991417 C74.21739701 71.83545074 76.59498462 74.20616004 78.96679688 76.58862305 C79.68358612 77.26384003 80.40037537 77.93905701 81.1388855 78.63473511 C87.41572768 85.08624176 86 86.64757186 86 97 C62.24 97 38.48 97 14 97 C14 96.67 14 96.34 14 96 C42.71 95.505 42.71 95.505 72 95 C66.17601562 89.19921875 60.35203125 83.3984375 54.3515625 77.421875 C50.20049958 73.28232753 46.05007086 69.14215186 41.90055084 65.00105858 C36.52247929 59.63407702 31.14292449 54.26860971 25.7578125 48.90869141 C21.03948846 44.21243106 16.32639883 39.51096106 11.61649704 34.80625153 C9.81687228 33.010328 8.0154854 31.21616848 6.21232986 29.42378998 C3.69109355 26.9170277 1.17614124 24.40412086 -1.33740234 21.88964844 C-2.08762161 21.14661972 -2.83784088 20.403591 -3.61079407 19.63804626 C-4.29508987 18.95100113 -4.97938568 18.26395599 -5.68441772 17.55609131 C-6.27989599 16.96245663 -6.87537426 16.36882195 -7.48889732 15.75719833 C-10.23705385 12.56148162 -11.02458437 10.70065461 -10.875 6.4375 C-10 3 -10 3 -8.3125 1.0625 C-5.07538005 -0.42482538 -3.54855304 -0.68241405 0 0 Z " fill="#5BB87C" transform="translate(147,181)"/>
<path d="M0 0 C2.5 2.1875 2.5 2.1875 4 5 C4.12056634 9.44774589 2.63138106 11.73077588 -0.23519897 14.91049194 C-1.69377592 16.41704449 -3.1664696 17.9100053 -4.64990234 19.39208984 C-5.85256744 20.62235397 -5.85256744 20.62235397 -7.07952881 21.87747192 C-9.734961 24.58550919 -12.40899701 27.27416997 -15.0859375 29.9609375 C-16.94175858 31.83536441 -18.79727398 33.71009402 -20.65249634 35.58511353 C-24.54484878 39.51399123 -28.44968784 43.43017755 -32.35986328 47.34130859 C-36.87034766 51.85362544 -41.35012044 56.39491793 -45.8166393 60.95072019 C-50.12437179 65.34146799 -54.46224242 69.70124334 -58.81200027 74.05034256 C-60.65411532 75.90019926 -62.48725637 77.75903804 -64.31107712 79.62693405 C-66.86738729 82.23958753 -69.45632 84.81502787 -72.05615234 87.38427734 C-72.8004953 88.16031311 -73.54483826 88.93634888 -74.31173706 89.73590088 C-78.49815076 93.79246202 -81.12064871 95.45372797 -87.05899048 95.47598267 C-88.70921636 95.35537055 -90.35876149 95.21006877 -92 95 C-93.14288248 85.10351341 -93.14288248 85.10351341 -90.67970657 80.56995583 C-88.71006331 78.23176496 -86.63338973 76.13577601 -84.41259766 74.03442383 C-83.60626389 73.22473145 -82.79993011 72.41503906 -81.96916199 71.58081055 C-79.31173819 68.92663379 -76.61434599 66.31753116 -73.9140625 63.70703125 C-72.05543398 61.86826036 -70.19937859 60.02688521 -68.34579468 58.18302917 C-64.46588417 54.33152709 -60.56523803 50.50219979 -56.6484375 46.68823242 C-51.12150187 41.30639491 -45.63169288 35.88789039 -40.14956975 30.46046031 C-32.40551772 22.79691767 -24.64302664 15.15208792 -16.84619141 7.54223633 C-15.69281029 6.4117411 -15.69281029 6.4117411 -14.51612854 5.25840759 C-13.46444237 4.2347963 -13.46444237 4.2347963 -12.39151001 3.19050598 C-11.47616958 2.29716159 -11.47616958 2.29716159 -10.54233742 1.38576984 C-7.05732789 -1.74546529 -4.41287198 -1.065176 0 0 Z " fill="#5AB97C" transform="translate(368,76)"/>
<path d="M0 0 C3.08435977 1.37456776 5.19547557 2.94685743 7.57519531 5.33227539 C8.59580048 6.34826561 8.59580048 6.34826561 9.63702393 7.38478088 C10.36008728 8.11502975 11.08315063 8.84527863 11.828125 9.59765625 C12.57713074 10.34712021 13.32613647 11.09658417 14.09783936 11.86875916 C15.67697478 13.45091212 17.25368257 15.0354913 18.828125 16.62231445 C21.24945888 19.06195479 23.67874961 21.49344835 26.109375 23.92382812 C27.64109884 25.46046532 29.17236495 26.99755894 30.703125 28.53515625 C31.43428528 29.26742935 32.16544556 29.99970245 32.91876221 30.75416565 C33.58655701 31.4283403 34.25435181 32.10251495 34.94238281 32.79711914 C35.53432434 33.39287247 36.12626587 33.98862579 36.73614502 34.60243225 C38 36 38 36 38 37 C16.22 37 -5.56 37 -28 37 C-28.33 36.34 -28.66 35.68 -29 35 C-28.3709375 34.5875 -27.741875 34.175 -27.09375 33.75 C-14.13837631 25.00902498 -5.79164305 14.56903997 0 0 Z " fill="#7BC796" transform="translate(182,240)"/>
</svg>
