<?xml version="1.0" encoding="UTF-8" standalone="no"?>
<!-- Created with Inkscape (http://www.inkscape.org/) -->

<svg
   version="1.1"
   id="svg1"
   width="32"
   height="32"
   viewBox="0 0 32 32"
   sodipodi:docname="sapling.svg"
   inkscape:version="1.4 (86a8ad7, 2024-10-11)"
   xmlns:inkscape="http://www.inkscape.org/namespaces/inkscape"
   xmlns:sodipodi="http://sodipodi.sourceforge.net/DTD/sodipodi-0.dtd"
   xmlns="http://www.w3.org/2000/svg"
   xmlns:svg="http://www.w3.org/2000/svg">
  <defs
     id="defs1" />
  <sodipodi:namedview
     id="namedview1"
     pagecolor="#ffffff"
     bordercolor="#000000"
     borderopacity="0.25"
     inkscape:showpageshadow="2"
     inkscape:pageopacity="0.0"
     inkscape:pagecheckerboard="0"
     inkscape:deskcolor="#d1d1d1"
     inkscape:zoom="16"
     inkscape:cx="-10.1875"
     inkscape:cy="24.90625"
     inkscape:window-width="1920"
     inkscape:window-height="1057"
     inkscape:window-x="-8"
     inkscape:window-y="-8"
     inkscape:window-maximized="1"
     inkscape:current-layer="g1" />
  <g
     inkscape:groupmode="layer"
     inkscape:label="Image"
     id="g1">
    <path
      fill="#1aa760"
      d="m 4.59515,32.00975 c 0.07,-0.043 0.3236,-0.1851 0.4624,-0.2585 0.047,-0.025 0.097,-0.053 0.1106,-0.062 0.1373,-0.093 1.1061,-0.5737 1.6536,-0.8205 0.066,-0.03 0.1387,-0.063 0.1609,-0.073 0.022,-0.011 0.069,-0.031 0.1055,-0.046 0.036,-0.015 0.094,-0.04 0.1289,-0.056 0.035,-0.016 0.067,-0.029 0.072,-0.029 0.01,0 0.06,-0.022 0.1225,-0.049 0.174,-0.076 0.38,-0.1614 0.3903,-0.1614 0.01,0 0.054,-0.02 0.1082,-0.044 0.054,-0.024 0.1325,-0.055 0.1735,-0.069 0.097,-0.032 0.2414,-0.085 0.4162,-0.1527 0.077,-0.03 0.1815,-0.067 0.2312,-0.084 0.05,-0.016 0.156,-0.053 0.2363,-0.081 0.08,-0.029 0.191,-0.065 0.2463,-0.082 0.1366,-0.041 0.4709,-0.1476 0.5327,-0.1705 0.028,-0.01 0.068,-0.023 0.09,-0.028 0.079,-0.018 0.203,-0.053 0.3368,-0.096 0.074,-0.024 0.2419,-0.069 0.3719,-0.1009 0.1299,-0.031 0.3154,-0.079 0.4122,-0.1061 0.096,-0.027 0.2053,-0.053 0.2413,-0.06 0.036,-0.01 0.1467,-0.031 0.2462,-0.054 0.3691,-0.089 0.5464,-0.1271 0.6836,-0.1468 0.077,-0.011 0.2424,-0.04 0.3669,-0.065 0.3575,-0.07 0.6581,-0.1168 1.4325,-0.2206 0.2807,-0.037 0.4734,-0.057 0.7991,-0.081 0.1134,-0.01 0.3304,-0.024 0.4825,-0.035 0.1521,-0.011 0.4706,-0.027 0.7078,-0.035 0.2374,-0.01 0.4341,-0.017 0.4373,-0.021 0.012,-0.012 0.013,-3.058 0,-3.1893 -0.013,-0.1503 -0.055,-0.4415 -0.076,-0.5326 -0.01,-0.036 -0.022,-0.1034 -0.03,-0.1501 -0.017,-0.1003 -0.074,-0.2811 -0.1505,-0.4795 -0.03,-0.078 -0.054,-0.1457 -0.054,-0.1498 0,-0.01 -0.051,-0.1155 -0.1213,-0.2605 -0.011,-0.022 -0.04,-0.092 -0.064,-0.1557 -0.066,-0.1702 -0.1935,-0.4115 -0.2876,-0.5432 -0.026,-0.037 -0.055,-0.082 -0.065,-0.1003 -0.01,-0.018 -0.052,-0.076 -0.093,-0.1284 -0.042,-0.052 -0.095,-0.1185 -0.1179,-0.1466 -0.1136,-0.1415 -0.5156,-0.5207 -0.6773,-0.6389 -0.076,-0.055 -0.1378,-0.1022 -0.1943,-0.1467 -0.055,-0.043 -0.3537,-0.243 -0.4617,-0.3088 -0.1075,-0.065 -0.1038,-0.061 -0.08,-0.094 0.011,-0.015 0.029,-0.046 0.04,-0.068 0.059,-0.1185 0.1326,-0.256 0.155,-0.2914 0.035,-0.055 0.073,-0.1239 0.132,-0.2362 0.027,-0.052 0.058,-0.1067 0.067,-0.1205 0.01,-0.014 0.041,-0.071 0.07,-0.1285 0.029,-0.057 0.055,-0.1021 0.059,-0.1005 0.056,0.026 0.3446,0.1755 0.4335,0.2244 0.065,0.035 0.1432,0.076 0.1742,0.089 0.031,0.014 0.078,0.04 0.1044,0.058 0.026,0.018 0.101,0.066 0.1656,0.1054 0.064,0.039 0.1379,0.086 0.1625,0.1049 0.025,0.018 0.084,0.06 0.1329,0.093 0.048,0.033 0.1085,0.078 0.134,0.1011 0.025,0.022 0.069,0.057 0.097,0.077 0.063,0.045 0.2804,0.2675 0.3382,0.3462 0.024,0.032 0.053,0.069 0.065,0.082 0.027,0.029 0.1497,0.2759 0.1587,0.3193 0.01,0.031 0.032,0.052 0.045,0.036 0.01,-0.01 0,-0.3023 -0.024,-0.8469 -0.01,-0.2016 -0.02,-0.4913 -0.026,-0.6436 -0.01,-0.1523 -0.019,-0.4123 -0.03,-0.5777 -0.011,-0.1655 -0.025,-0.3955 -0.03,-0.5111 -0.01,-0.1157 -0.019,-0.3191 -0.029,-0.4522 -0.011,-0.133 -0.022,-0.303 -0.026,-0.3775 -0.01,-0.1957 -0.032,-0.4684 -0.06,-0.7362 -0.014,-0.1284 -0.03,-0.2922 -0.035,-0.364 -0.01,-0.072 -0.028,-0.279 -0.051,-0.4603 -0.023,-0.1812 -0.039,-0.3326 -0.035,-0.3362 0.017,-0.017 1.0634,-0.093 1.0783,-0.079 0.01,0.01 0.034,0.285 0.068,0.7801 0.01,0.1133 0.03,0.3981 0.05,0.6331 0.02,0.2348 0.04,0.5083 0.046,0.6078 0.026,0.4553 0.051,0.8639 0.054,0.8666 0.01,0.01 0.034,-0.012 0.05,-0.039 0.01,-0.017 0.032,-0.047 0.05,-0.066 0.017,-0.02 0.061,-0.073 0.097,-0.1189 0.036,-0.046 0.1106,-0.1388 0.1659,-0.2064 0.055,-0.068 0.118,-0.1459 0.1395,-0.174 0.021,-0.028 0.064,-0.079 0.095,-0.1142 0.031,-0.035 0.07,-0.08 0.086,-0.1016 0.056,-0.071 0.2296,-0.2767 0.316,-0.3739 0.113,-0.1269 0.1922,-0.2169 0.2776,-0.3153 0.038,-0.044 0.088,-0.099 0.1099,-0.1212 0.022,-0.022 0.09,-0.096 0.1509,-0.1639 0.061,-0.067 0.1499,-0.1633 0.198,-0.2124 l 0.087,-0.089 0.053,0.067 c 0.029,0.037 0.063,0.078 0.076,0.092 0.013,0.014 0.049,0.058 0.081,0.099 0.031,0.041 0.1281,0.159 0.2146,0.2628 0.086,0.104 0.1603,0.194 0.1641,0.2002 0.01,0.013 -0.012,0.038 -0.1457,0.1815 -0.054,0.058 -0.1453,0.1598 -0.2028,0.2261 -0.057,0.066 -0.1223,0.1406 -0.1441,0.165 -0.022,0.024 -0.08,0.09 -0.1305,0.1456 -0.05,0.056 -0.1004,0.1135 -0.1116,0.1283 -0.02,0.026 -0.043,0.052 -0.2349,0.2694 -0.052,0.059 -0.1204,0.1383 -0.1508,0.1756 -0.03,0.037 -0.062,0.075 -0.07,0.084 -0.1036,0.1145 -0.2572,0.2902 -0.2953,0.3378 -0.026,0.033 -0.081,0.096 -0.1222,0.1408 -0.041,0.044 -0.087,0.098 -0.1029,0.1205 -0.016,0.022 -0.037,0.047 -0.047,0.055 -0.01,0.01 -0.036,0.038 -0.058,0.065 -0.043,0.054 -0.1695,0.2012 -0.2588,0.3003 -0.055,0.061 -0.1723,0.1978 -0.2442,0.2848 l -0.038,0.046 0.01,0.1213 c 0,0.067 0.01,0.214 0.016,0.3274 0.01,0.1133 0.014,0.3664 0.02,0.5627 0.01,0.1961 0.019,0.5805 0.03,0.854 0.031,0.7879 0.049,1.4316 0.066,2.2859 0.01,0.4365 0.02,0.9339 0.025,1.1052 0.01,0.1714 0.021,0.7411 0.035,1.266 0.014,0.525 0.029,0.9575 0.033,0.961 0,0 0.154,0.011 0.3337,0.017 0.28,0.01 1.1229,0.066 1.5129,0.1021 0.1062,0.01 0.6501,0.082 1.0556,0.1405 0.2386,0.034 0.5024,0.079 0.7388,0.1255 0.1244,0.024 0.2895,0.053 0.3669,0.064 0.1346,0.019 0.356,0.067 0.7037,0.1513 0.088,0.021 0.1902,0.044 0.2261,0.05 0.036,0.01 0.1468,0.033 0.2463,0.06 0.2019,0.055 0.2297,0.062 0.4725,0.1212 0.094,0.023 0.2477,0.065 0.3417,0.094 0.094,0.029 0.2004,0.061 0.2363,0.07 0.082,0.021 0.2757,0.081 0.3619,0.1114 0.07,0.025 0.2046,0.067 0.3418,0.1082 0.082,0.024 0.3707,0.1241 0.4222,0.1458 0.014,0.01 0.059,0.021 0.1005,0.033 0.041,0.012 0.1116,0.038 0.1558,0.057 0.044,0.019 0.1167,0.047 0.1609,0.062 0.2291,0.08 0.3663,0.1298 0.4071,0.1483 0.071,0.032 0.1222,0.053 0.1709,0.069 0.046,0.016 0.1756,0.07 0.3579,0.1496 0.056,0.024 0.1051,0.044 0.1092,0.044 0.01,0 0.2842,0.117 0.327,0.1397 0.019,0.01 0.071,0.033 0.1157,0.051 0.044,0.018 0.1165,0.051 0.1608,0.073 0.044,0.022 0.1549,0.074 0.2462,0.1151 0.1693,0.076 0.377,0.1752 0.4222,0.2005 0.014,0.01 0.068,0.036 0.1206,0.063 0.052,0.027 0.1137,0.058 0.1357,0.07 0.022,0.012 0.063,0.032 0.09,0.045 0.08,0.038 0.3856,0.1971 0.4625,0.2413 0.039,0.022 0.1132,0.063 0.1658,0.092 0.1653,0.089 0.4352,0.2415 0.4875,0.2745 l 0.05,0.032 H 16.89795 4.53355 Z m 4.0963,-9.0675 c -0.011,0 -0.1015,-0.01 -0.201,-0.015 -0.1606,-0.01 -0.3081,-0.027 -0.5177,-0.061 -0.056,-0.01 -0.2852,-0.061 -0.5126,-0.1167 -0.19,-0.046 -0.67,-0.2038 -0.787,-0.2579 -0.032,-0.015 -0.061,-0.027 -0.063,-0.027 0,0 -0.036,-0.014 -0.072,-0.031 -0.037,-0.017 -0.1054,-0.047 -0.1524,-0.066 -0.047,-0.019 -0.1148,-0.05 -0.1508,-0.068 -0.036,-0.018 -0.1287,-0.064 -0.206,-0.1012 -0.077,-0.037 -0.1657,-0.084 -0.196,-0.1052 -0.03,-0.02 -0.087,-0.053 -0.1257,-0.072 -0.039,-0.02 -0.091,-0.049 -0.1156,-0.066 -0.025,-0.017 -0.048,-0.031 -0.052,-0.031 0,0 -0.027,-0.014 -0.052,-0.03 -0.024,-0.016 -0.071,-0.044 -0.1035,-0.061 -0.032,-0.017 -0.067,-0.038 -0.077,-0.048 -0.017,-0.015 -0.1816,-0.1297 -0.4221,-0.2928 -0.049,-0.033 -0.125,-0.09 -0.1692,-0.1273 -0.044,-0.037 -0.093,-0.076 -0.1091,-0.088 -0.028,-0.021 -0.096,-0.075 -0.1798,-0.1449 -0.024,-0.02 -0.054,-0.043 -0.065,-0.051 -0.1006,-0.069 -0.7326,-0.683 -0.8704,-0.8457 -0.036,-0.042 -0.1197,-0.1397 -0.186,-0.2163 -0.066,-0.076 -0.1281,-0.1506 -0.1373,-0.1644 -0.01,-0.014 -0.025,-0.034 -0.035,-0.045 -0.01,-0.011 -0.032,-0.04 -0.048,-0.065 -0.016,-0.025 -0.046,-0.065 -0.066,-0.09 -0.063,-0.078 -0.2257,-0.3152 -0.2828,-0.4132 -0.03,-0.052 -0.077,-0.1327 -0.1047,-0.1796 -0.1251,-0.2137 -0.2304,-0.4447 -0.2837,-0.623 -0.071,-0.2371 -0.083,-0.3114 -0.088,-0.5225 v -0.1959 l 0.093,-0.076 c 0.051,-0.042 0.1045,-0.082 0.1184,-0.089 0.014,-0.01 0.043,-0.028 0.066,-0.046 0.022,-0.018 0.092,-0.069 0.1558,-0.113 0.063,-0.044 0.1286,-0.091 0.1451,-0.1045 0.016,-0.014 0.084,-0.057 0.1495,-0.097 0.065,-0.04 0.1606,-0.099 0.2108,-0.132 0.05,-0.032 0.094,-0.059 0.098,-0.059 0,0 0.06,-0.032 0.1252,-0.071 0.065,-0.039 0.2002,-0.1131 0.3001,-0.1642 0.1003,-0.051 0.1952,-0.1003 0.2117,-0.1087 0.087,-0.045 0.3414,-0.1642 0.4071,-0.1897 0.078,-0.03 0.1274,-0.05 0.3469,-0.1421 0.072,-0.03 0.1442,-0.058 0.1608,-0.061 0.017,0 0.082,-0.027 0.1458,-0.051 0.1952,-0.074 0.3425,-0.1235 0.4372,-0.1463 0.05,-0.012 0.147,-0.039 0.2162,-0.06 0.329,-0.1003 1.064,-0.2533 1.347,-0.2805 0.063,-0.01 0.1857,-0.018 0.2714,-0.026 0.4796,-0.046 1.1215,-0.046 1.5682,0 0.3914,0.04 0.3928,0.04 0.6785,0.1067 0.2817,0.065 0.5229,0.1321 0.6384,0.1768 0.036,0.014 0.1241,0.045 0.196,0.07 0.072,0.024 0.2077,0.082 0.302,0.1294 0.094,0.047 0.1763,0.085 0.1822,0.085 0.01,0 0.045,0.023 0.087,0.05 0.042,0.028 0.079,0.05 0.081,0.05 0,0 0.049,0.027 0.1041,0.06 0.055,0.033 0.1043,0.06 0.1097,0.06 0.01,0 0.03,0.017 0.054,0.038 0.024,0.021 0.069,0.056 0.099,0.077 0.2985,0.2124 0.6199,0.5315 0.8245,0.8189 0.03,0.041 0.072,0.1003 0.095,0.1306 0.023,0.03 0.045,0.062 0.049,0.07 0,0.01 0.023,0.04 0.042,0.07 0.019,0.03 0.042,0.071 0.051,0.09 0.01,0.019 0.034,0.066 0.056,0.1054 0.065,0.115 0.2511,0.5446 0.2644,0.6117 0,0.017 0.022,0.079 0.041,0.1374 0.036,0.1119 0.042,0.1351 0.1037,0.442 0.051,0.2545 0.092,0.6667 0.092,0.933 v 0.07 l -0.053,-0.023 c -0.029,-0.013 -0.1524,-0.056 -0.274,-0.096 -0.1216,-0.04 -0.2685,-0.091 -0.3263,-0.1129 -0.058,-0.022 -0.1391,-0.048 -0.1807,-0.059 -0.041,-0.011 -0.1163,-0.034 -0.1663,-0.053 -0.086,-0.032 -0.3787,-0.1249 -0.5732,-0.1822 -0.05,-0.015 -0.1357,-0.042 -0.191,-0.06 -0.055,-0.018 -0.1367,-0.045 -0.1809,-0.058 -0.044,-0.014 -0.2004,-0.063 -0.3468,-0.111 -0.4716,-0.1524 -0.5513,-0.1774 -0.5636,-0.1774 -0.01,0 -0.068,-0.02 -0.1371,-0.045 -0.068,-0.025 -0.1463,-0.05 -0.172,-0.055 -0.026,-0.01 -0.1083,-0.033 -0.1828,-0.061 -0.074,-0.027 -0.1529,-0.054 -0.1738,-0.059 -0.037,-0.01 -0.039,-0.01 -0.058,0.03 -0.011,0.021 -0.031,0.072 -0.044,0.1128 -0.014,0.041 -0.042,0.1126 -0.064,0.159 -0.021,0.046 -0.047,0.1096 -0.057,0.1399 -0.01,0.03 -0.035,0.096 -0.056,0.1457 -0.1018,0.2398 -0.1207,0.2897 -0.1132,0.2973 0.013,0.013 0.1934,0.072 0.5209,0.1711 0.039,0.012 0.1315,0.043 0.2061,0.069 0.074,0.026 0.1877,0.064 0.2514,0.083 0.1242,0.037 0.1853,0.058 0.3546,0.1188 0.059,0.021 0.1546,0.052 0.211,0.068 0.056,0.016 0.1502,0.047 0.2084,0.069 0.1685,0.065 0.313,0.1177 0.3618,0.1319 0.025,0.01 0.086,0.03 0.1357,0.051 0.05,0.021 0.1448,0.057 0.2111,0.08 0.1594,0.056 0.2291,0.083 0.3619,0.1411 0.061,0.027 0.14,0.059 0.176,0.073 0.036,0.013 0.09,0.036 0.1206,0.05 0.2063,0.094 0.301,0.1365 0.3323,0.1467 0.02,0.01 0.065,0.027 0.1024,0.047 l 0.066,0.035 -0.024,0.052 c -0.1027,0.2214 -0.315,0.4952 -0.4934,0.636 -0.1275,0.1006 -0.1857,0.1422 -0.2683,0.1918 -0.051,0.03 -0.1195,0.073 -0.1527,0.094 -0.1637,0.1063 -0.7967,0.4312 -0.8401,0.4312 -0.01,0 -0.049,0.016 -0.096,0.035 -0.1541,0.063 -0.4053,0.1413 -0.6769,0.2091 -0.4097,0.1021 -0.679,0.1354 -1.151,0.142 -0.1493,0 -0.2804,0 -0.2916,4e-4 z m 14.3097,-4.5673 c -0.058,0 -0.1622,-0.017 -0.2312,-0.03 -0.069,-0.012 -0.1778,-0.03 -0.2413,-0.04 -0.1831,-0.029 -0.6288,-0.1715 -0.8846,-0.2824 -0.1958,-0.085 -0.2123,-0.092 -0.3164,-0.1486 -0.055,-0.03 -0.137,-0.073 -0.1812,-0.096 -0.044,-0.023 -0.1038,-0.057 -0.1325,-0.076 -0.029,-0.019 -0.073,-0.046 -0.098,-0.061 l -0.046,-0.028 0.2093,-0.2092 c 0.2112,-0.2113 0.5515,-0.5376 0.6161,-0.5909 0.019,-0.016 0.053,-0.047 0.076,-0.069 0.022,-0.022 0.061,-0.056 0.085,-0.076 0.025,-0.02 0.074,-0.065 0.1102,-0.1003 0.036,-0.035 0.085,-0.081 0.1107,-0.1033 0.025,-0.022 0.087,-0.078 0.1392,-0.1261 0.052,-0.047 0.097,-0.088 0.1006,-0.091 0.035,-0.027 0.122,-0.1333 0.122,-0.148 0,-0.022 -0.072,-0.1232 -0.3775,-0.5303 -0.025,-0.033 -0.068,-0.093 -0.095,-0.1331 -0.03,-0.043 -0.057,-0.073 -0.068,-0.073 -0.01,0 -0.054,0.033 -0.098,0.073 -0.044,0.04 -0.1499,0.1294 -0.2347,0.1985 -0.084,0.069 -0.1907,0.1574 -0.2356,0.1965 -0.045,0.039 -0.1022,0.086 -0.127,0.1049 -0.025,0.019 -0.068,0.054 -0.096,0.08 -0.028,0.025 -0.088,0.075 -0.1346,0.111 -0.046,0.036 -0.098,0.078 -0.1153,0.095 -0.017,0.016 -0.052,0.046 -0.078,0.065 -0.026,0.02 -0.093,0.074 -0.1497,0.1209 -0.056,0.047 -0.1733,0.1437 -0.2596,0.2149 -0.086,0.071 -0.1781,0.1493 -0.2041,0.1734 -0.026,0.024 -0.049,0.044 -0.052,0.044 -0.01,0 -0.1251,-0.2407 -0.1702,-0.3571 -0.068,-0.1751 -0.1454,-0.4447 -0.1649,-0.5723 -0.022,-0.1437 -0.025,-0.7811 0,-0.9294 0.011,-0.082 0.065,-0.3231 0.077,-0.3413 0,0 0.013,-0.04 0.024,-0.081 0.03,-0.1136 0.1244,-0.3673 0.175,-0.473 0.025,-0.052 0.073,-0.153 0.1075,-0.2248 0.034,-0.072 0.077,-0.151 0.095,-0.1758 0.018,-0.025 0.043,-0.065 0.055,-0.09 0.012,-0.025 0.04,-0.069 0.061,-0.097 0.021,-0.029 0.039,-0.055 0.039,-0.059 0,0 0.017,-0.03 0.039,-0.058 0.021,-0.028 0.055,-0.076 0.075,-0.1064 0.059,-0.09 0.1921,-0.2512 0.3584,-0.4351 0.1832,-0.203 0.2791,-0.2983 0.4737,-0.4708 0.015,-0.013 0.055,-0.049 0.09,-0.081 0.064,-0.058 0.1132,-0.096 0.2952,-0.234 0.055,-0.042 0.1167,-0.089 0.1366,-0.1053 0.02,-0.016 0.092,-0.066 0.1609,-0.1112 0.068,-0.045 0.136,-0.09 0.1498,-0.1009 0.014,-0.01 0.05,-0.033 0.08,-0.05 0.061,-0.035 0.1572,-0.094 0.2413,-0.1481 0.03,-0.02 0.1366,-0.077 0.2362,-0.1279 0.099,-0.051 0.1945,-0.099 0.2111,-0.1083 0.078,-0.041 0.383,-0.1785 0.4774,-0.2153 0.058,-0.023 0.1644,-0.064 0.2363,-0.091 0.072,-0.028 0.1735,-0.064 0.2262,-0.08 0.052,-0.016 0.1316,-0.041 0.1758,-0.056 0.2047,-0.067 0.3654,-0.1152 0.4022,-0.1212 0.022,0 0.1057,-0.021 0.1859,-0.04 0.2248,-0.052 0.6532,-0.1276 0.7942,-0.1407 0.03,0 0.1299,-0.013 0.2212,-0.022 0.248,-0.025 1.0555,-0.025 1.3218,6e-4 0.2857,0.028 0.7272,0.1007 0.9299,0.1538 0.052,0.014 0.1361,0.034 0.1859,0.044 0.093,0.019 0.1386,0.033 0.2413,0.07 0.033,0.012 0.08,0.028 0.1056,0.035 0.077,0.022 0.3699,0.1305 0.5277,0.195 0.2494,0.1021 0.7487,0.3591 0.749,0.3856 0,0.018 -0.068,0.294 -0.1111,0.4491 -0.021,0.074 -0.045,0.1678 -0.053,0.2072 -0.01,0.039 -0.038,0.1388 -0.065,0.221 -0.027,0.082 -0.052,0.1653 -0.056,0.1847 -0.011,0.05 -0.1174,0.3632 -0.1542,0.4521 -0.017,0.041 -0.047,0.1184 -0.065,0.1708 -0.019,0.052 -0.065,0.1679 -0.1022,0.2562 -0.037,0.088 -0.078,0.1902 -0.091,0.2261 -0.013,0.036 -0.059,0.1387 -0.1042,0.2283 -0.044,0.089 -0.09,0.1847 -0.1005,0.2114 -0.01,0.027 -0.032,0.071 -0.048,0.098 -0.016,0.027 -0.061,0.1154 -0.1006,0.1955 -0.039,0.08 -0.095,0.1841 -0.1236,0.2312 -0.029,0.047 -0.065,0.1104 -0.08,0.1411 -0.015,0.031 -0.056,0.1008 -0.09,0.1558 -0.034,0.055 -0.078,0.1293 -0.098,0.1652 -0.019,0.036 -0.053,0.088 -0.074,0.1165 -0.021,0.028 -0.039,0.053 -0.039,0.056 0,0 -0.034,0.054 -0.075,0.1147 -0.041,0.06 -0.1145,0.1681 -0.1631,0.24 -0.048,0.072 -0.1117,0.1585 -0.1405,0.1926 -0.029,0.034 -0.058,0.072 -0.064,0.085 -0.01,0.013 -0.018,0.028 -0.024,0.033 -0.01,0.01 -0.03,0.032 -0.051,0.06 -0.022,0.027 -0.042,0.052 -0.045,0.055 0,0 -0.025,0.032 -0.05,0.065 -0.024,0.033 -0.072,0.092 -0.1062,0.1306 -0.034,0.039 -0.1182,0.1334 -0.1865,0.2106 -0.2593,0.2926 -0.6808,0.6916 -0.9131,0.8645 -0.037,0.028 -0.083,0.063 -0.1018,0.078 -0.3396,0.2775 -0.971,0.6369 -1.3712,0.7807 -0.1768,0.063 -0.2976,0.1029 -0.5125,0.1672 -0.1184,0.035 -0.5416,0.1038 -0.7088,0.1145 -0.1694,0.011 -0.5111,0.01 -0.6635,-8e-4 z m -8.0772,-3.6326 c -0.5846,-0.043 -1.0306,-0.1315 -1.2816,-0.2553 -0.03,-0.015 -0.073,-0.033 -0.095,-0.04 -0.05,-0.015 -0.2132,-0.088 -0.3267,-0.1458 -0.047,-0.024 -0.096,-0.046 -0.1107,-0.051 -0.014,0 -0.041,-0.017 -0.06,-0.03 -0.019,-0.012 -0.073,-0.042 -0.1206,-0.067 -0.1226,-0.065 -0.199,-0.1096 -0.2725,-0.1599 -0.035,-0.024 -0.097,-0.064 -0.1368,-0.089 -0.04,-0.025 -0.1145,-0.075 -0.1658,-0.1124 -0.051,-0.037 -0.1149,-0.082 -0.1409,-0.1005 -0.074,-0.052 -0.3011,-0.2393 -0.5029,-0.4147 -0.2146,-0.1865 -0.7183,-0.7271 -0.8618,-0.9249 -0.024,-0.033 -0.062,-0.081 -0.085,-0.1067 -0.022,-0.025 -0.063,-0.079 -0.091,-0.1194 -0.028,-0.04 -0.062,-0.087 -0.076,-0.1042 -0.034,-0.041 -0.3245,-0.4792 -0.4,-0.6041 -0.038,-0.064 -0.1415,-0.2482 -0.1415,-0.2534 0,0 -0.01,-0.017 -0.019,-0.031 -0.01,-0.015 -0.058,-0.1035 -0.1066,-0.1975 -0.048,-0.094 -0.098,-0.1889 -0.1114,-0.2111 -0.013,-0.022 -0.04,-0.08 -0.059,-0.1287 -0.02,-0.048 -0.049,-0.1158 -0.066,-0.1492 -0.016,-0.033 -0.03,-0.064 -0.03,-0.069 0,0 -0.016,-0.04 -0.034,-0.079 -0.019,-0.039 -0.044,-0.099 -0.056,-0.1335 -0.012,-0.034 -0.044,-0.1153 -0.071,-0.1797 -0.027,-0.064 -0.049,-0.1201 -0.049,-0.1239 0,0 -0.011,-0.034 -0.024,-0.068 -0.013,-0.034 -0.038,-0.1096 -0.056,-0.1675 -0.018,-0.058 -0.054,-0.1734 -0.08,-0.2562 -0.027,-0.083 -0.056,-0.1847 -0.065,-0.2261 -0.01,-0.041 -0.032,-0.132 -0.051,-0.201 -0.061,-0.2306 -0.1334,-0.5566 -0.1441,-0.6531 -0.01,-0.052 -0.02,-0.1494 -0.031,-0.2153 -0.057,-0.3299 -0.1003,-0.9167 -0.099,-1.3773 0,-0.4644 0.04,-1.015 0.1039,-1.4117 0.014,-0.085 0.028,-0.1851 0.031,-0.221 0,-0.036 0.022,-0.1331 0.041,-0.2161 0.019,-0.083 0.045,-0.1981 0.058,-0.2562 0.044,-0.2005 0.1062,-0.4377 0.156,-0.5979 0.027,-0.088 0.055,-0.1825 0.06,-0.2093 0.01,-0.027 0.017,-0.065 0.026,-0.085 0.01,-0.02 0.019,-0.052 0.024,-0.072 0.012,-0.046 0.078,-0.2324 0.1236,-0.3468 0.02,-0.05 0.049,-0.1266 0.066,-0.1708 0.016,-0.044 0.051,-0.1301 0.077,-0.1909 0.026,-0.061 0.061,-0.1467 0.078,-0.1909 0.028,-0.072 0.1965,-0.4315 0.25,-0.5326 0.012,-0.022 0.05,-0.099 0.086,-0.1708 0.035,-0.072 0.07,-0.1397 0.076,-0.1507 0.01,-0.011 0.021,-0.038 0.032,-0.06 0.011,-0.022 0.034,-0.06 0.05,-0.085 0.016,-0.025 0.046,-0.077 0.066,-0.1156 0.02,-0.039 0.055,-0.099 0.077,-0.1356 0.022,-0.036 0.075,-0.1264 0.1182,-0.2011 0.043,-0.074 0.088,-0.1477 0.099,-0.1627 0.012,-0.015 0.039,-0.057 0.061,-0.093 0.022,-0.036 0.06,-0.094 0.084,-0.1287 0.024,-0.034 0.074,-0.1095 0.1115,-0.1676 0.037,-0.058 0.099,-0.1483 0.1388,-0.2007 0.039,-0.052 0.072,-0.099 0.072,-0.1044 0,-0.01 0.016,-0.028 0.036,-0.05 0.02,-0.023 0.077,-0.098 0.1281,-0.1672 0.05,-0.069 0.1145,-0.1536 0.1418,-0.1875 l 0.05,-0.062 0.066,0.025 c 0.036,0.014 0.1106,0.041 0.1655,0.06 0.055,0.019 0.1183,0.043 0.1407,0.053 0.086,0.039 0.2534,0.1034 0.4733,0.1822 0.028,0.01 0.086,0.036 0.1307,0.057 0.044,0.022 0.098,0.045 0.1206,0.052 0.036,0.012 0.1491,0.061 0.3267,0.1433 0.036,0.017 0.1104,0.048 0.1654,0.07 0.055,0.022 0.1253,0.052 0.1559,0.068 0.03,0.016 0.1009,0.05 0.1562,0.076 0.1494,0.071 0.5885,0.2839 0.6233,0.3026 0.016,0.01 0.082,0.043 0.1457,0.076 0.063,0.033 0.1202,0.063 0.1257,0.068 0.01,0 0.039,0.023 0.075,0.043 0.1837,0.098 0.3193,0.1725 0.3417,0.1882 0.014,0.01 0.052,0.031 0.085,0.049 0.033,0.017 0.1032,0.058 0.1558,0.091 0.052,0.033 0.1173,0.072 0.144,0.088 0.176,0.1005 0.4761,0.295 0.7944,0.5147 0.032,0.022 0.06,0.04 0.063,0.04 0,0 0.033,0.023 0.068,0.05 0.035,0.028 0.068,0.05 0.073,0.05 0.01,0 0.02,0.011 0.033,0.025 0.013,0.014 0.062,0.052 0.1098,0.085 0.1063,0.074 0.2557,0.1897 0.4441,0.3432 0.2944,0.2396 0.3182,0.2601 0.5255,0.4514 0.038,0.035 0.092,0.084 0.1203,0.1092 0.1054,0.094 0.5536,0.5496 0.6119,0.6223 0.015,0.019 0.063,0.073 0.1072,0.1205 0.044,0.047 0.097,0.1073 0.1181,0.133 0.1404,0.1701 0.2102,0.2571 0.2788,0.3475 0.043,0.056 0.082,0.1031 0.086,0.1031 0,0 0.012,0.01 0.015,0.021 0,0.011 0.03,0.051 0.058,0.088 0.088,0.1146 0.4814,0.7128 0.4988,0.7586 0.01,0.014 0.049,0.094 0.096,0.1785 0.048,0.084 0.1026,0.1857 0.1213,0.2247 0.019,0.039 0.051,0.1028 0.072,0.1417 0.021,0.039 0.06,0.1225 0.087,0.1859 0.07,0.1666 0.1062,0.2491 0.1318,0.306 0.012,0.027 0.032,0.079 0.044,0.1156 0.012,0.036 0.035,0.097 0.05,0.1356 0.067,0.1687 0.1248,0.3379 0.1426,0.417 0.01,0.047 0.037,0.1487 0.058,0.226 0.053,0.1895 0.1168,0.4611 0.1356,0.5778 0.12,0.7481 0.1193,0.7406 0.1193,1.3515 0,0.5623 -0.01,0.6384 -0.074,1.06 -0.017,0.1022 -0.037,0.2288 -0.045,0.2813 -0.018,0.114 -0.082,0.3848 -0.1365,0.5727 -0.021,0.074 -0.044,0.1628 -0.05,0.196 -0.02,0.1054 -0.092,0.3222 -0.1781,0.5348 -0.023,0.056 -0.041,0.1059 -0.041,0.1096 0,0.019 -0.226,0.4537 -0.2701,0.5191 -0.028,0.042 -0.051,0.08 -0.051,0.085 0,0.022 -0.1899,0.2843 -0.2916,0.4032 -0.036,0.042 -0.083,0.099 -0.1055,0.1264 -0.066,0.082 -0.3751,0.3849 -0.4764,0.4667 -0.1331,0.1074 -0.1687,0.1349 -0.2373,0.183 -0.033,0.023 -0.085,0.061 -0.1153,0.083 -0.09,0.067 -0.3797,0.2365 -0.4713,0.2755 -0.03,0.013 -0.064,0.03 -0.076,0.037 -0.081,0.053 -0.5512,0.2367 -0.5663,0.2217 -0.01,-0.01 -0.084,-0.3422 -0.1034,-0.458 -0.011,-0.063 -0.037,-0.1816 -0.059,-0.2623 -0.022,-0.08 -0.045,-0.1778 -0.051,-0.2159 -0.01,-0.038 -0.024,-0.1192 -0.04,-0.18 -0.016,-0.061 -0.041,-0.1625 -0.055,-0.226 -0.014,-0.063 -0.046,-0.1834 -0.069,-0.2663 -0.024,-0.083 -0.053,-0.1891 -0.066,-0.2362 -0.032,-0.1205 -0.086,-0.3123 -0.116,-0.4069 -0.037,-0.1183 -0.074,-0.2511 -0.095,-0.3366 -0.01,-0.041 -0.034,-0.1206 -0.053,-0.1758 -0.019,-0.055 -0.038,-0.114 -0.042,-0.1307 0,-0.016 -0.024,-0.077 -0.045,-0.1356 -0.021,-0.058 -0.048,-0.1416 -0.06,-0.1859 -0.012,-0.044 -0.039,-0.1256 -0.06,-0.1808 -0.021,-0.055 -0.064,-0.1819 -0.095,-0.2813 -0.031,-0.099 -0.079,-0.2375 -0.1065,-0.3065 -0.027,-0.069 -0.06,-0.1595 -0.074,-0.201 -0.033,-0.1003 -0.1004,-0.2789 -0.139,-0.3693 -0.021,-0.05 -0.036,-0.073 -0.048,-0.073 -0.01,0 -0.078,0.018 -0.1523,0.04 -0.074,0.022 -0.1891,0.053 -0.2553,0.069 -0.1443,0.035 -0.3806,0.1005 -0.5325,0.1472 -0.061,0.019 -0.1322,0.037 -0.1584,0.041 -0.026,0 -0.05,0.011 -0.053,0.016 -0.01,0.011 0.091,0.3052 0.1461,0.4362 0.022,0.053 0.041,0.1019 0.041,0.1072 0,0.013 0.136,0.3986 0.1712,0.4853 0.016,0.039 0.038,0.1073 0.049,0.1526 0.011,0.045 0.038,0.1311 0.059,0.1909 0.021,0.06 0.057,0.1614 0.08,0.2258 0.023,0.064 0.042,0.1224 0.042,0.1288 0,0.01 0.034,0.1129 0.075,0.2367 0.041,0.1238 0.1027,0.3254 0.1363,0.4478 0.034,0.1225 0.072,0.2541 0.086,0.2925 0.014,0.038 0.04,0.1295 0.058,0.2022 0.018,0.072 0.045,0.1729 0.059,0.2227 0.073,0.2547 0.1367,0.5053 0.1556,0.6141 0.012,0.067 0.037,0.1878 0.057,0.2685 0.019,0.081 0.035,0.1556 0.035,0.1665 0,0.011 0.016,0.092 0.035,0.1822 0.019,0.089 0.033,0.1653 0.03,0.1684 -0.01,0.01 -0.6867,0.012 -0.7642,0.01 z"
      id="path1" />
  </g>
</svg>
