<?xml version="1.0" encoding="utf-8"?>
<svg version="1.1" xmlns="http://www.w3.org/2000/svg" width="512" height="512" style="isolation: isolate;">
  <path d="M0 0 C1.74446685 -0.00898481 3.48893299 -0.01810693 5.23339844 -0.02735901 C8.86411401 -0.0437347 12.49473848 -0.05153018 16.12548828 -0.05444336 C20.77727608 -0.05986753 25.42821216 -0.09776023 30.07975769 -0.14318752 C33.670829 -0.17288853 37.26169127 -0.18016512 40.85287476 -0.18116951 C42.5689186 -0.18537259 44.28496301 -0.19781054 46.00088501 -0.21868706 C48.39186772 -0.24550607 50.78081941 -0.24081039 53.171875 -0.22827148 C54.23008705 -0.25052292 54.23008705 -0.25052292 55.30967712 -0.27322388 C58.81699285 -0.22077252 60.43782292 0.1565478 63.12586975 2.46636963 C65.04653869 6.03892683 65.1886702 8.39563084 65.18920898 12.44604492 C65.19731346 13.48641655 65.19731346 13.48641655 65.20558167 14.54780579 C65.21806499 16.8369955 65.2015599 19.12492435 65.18359375 21.4140625 C65.18374898 23.02289393 65.18524186 24.63172574 65.18800354 26.24055481 C65.18938813 29.6191149 65.17683773 32.99725093 65.15405273 36.37573242 C65.12596443 40.65290603 65.12832288 44.92935964 65.14114285 49.20658398 C65.14819598 52.53662468 65.14019808 55.86650704 65.12788582 59.19652748 C65.12344281 60.76977233 65.12297007 62.34303466 65.12695122 63.91628075 C65.14620707 78.24694891 63.8672039 92.82453917 59.0625 106.43359375 C58.81089111 107.16271973 58.55928223 107.8918457 58.30004883 108.64306641 C53.56547272 121.76222845 46.62622756 133.6741702 37.6875 144.37109375 C36.85605469 145.36625 36.02460938 146.36140625 35.16796875 147.38671875 C24.88382921 159.30380644 12.60379206 168.14850512 -1.3125 175.37109375 C-2.21226562 175.84160156 -3.11203125 176.31210938 -4.0390625 176.796875 C-9.46577112 179.44464975 -15.04136655 181.33088096 -20.8125 183.05859375 C-21.48837158 183.26121826 -22.16424316 183.46384277 -22.8605957 183.67260742 C-33.86063304 186.81941366 -44.42641023 187.65298594 -55.82421875 187.56640625 C-57.28823145 187.56266672 -58.75224669 187.5598242 -60.21626282 187.55783081 C-64.03188229 187.55026822 -67.84734459 187.53068504 -71.66290283 187.50842285 C-75.5714709 187.48780363 -79.48006486 187.47879505 -83.38867188 187.46875 C-91.03001884 187.44743058 -98.67123723 187.41338617 -106.3125 187.37109375 C-106.37625824 188.25687103 -106.44001648 189.14264832 -106.50570679 190.05526733 C-106.6350914 191.80367416 -106.6350914 191.80367416 -106.76708984 193.58740234 C-106.85147308 194.74130463 -106.93585632 195.89520691 -107.02279663 197.08407593 C-107.38021716 201.13942284 -108.02540833 205.03314754 -108.9375 208.99609375 C-109.10789795 209.74552246 -109.2782959 210.49495117 -109.45385742 211.26708984 C-112.30134696 223.11667728 -116.89854224 234.36778275 -121.9375 245.43359375 C-134.48859185 273.06277255 -134.80868736 304.83190456 -124.90234375 333.31640625 C-122.7404938 339.02323289 -120.11852835 344.53408502 -117.56030273 350.07104492 C-110.3125 365.91440131 -110.3125 365.91440131 -110.3125 373.37109375 C-109.70156494 373.47413818 -109.09062988 373.57718262 -108.46118164 373.68334961 C-102.24033907 374.81749691 -96.59208705 376.53353795 -90.75 378.93359375 C-89.45690918 379.46194824 -89.45690918 379.46194824 -88.13769531 380.00097656 C-69.67819248 387.70091619 -53.71681876 397.88848289 -39.23046875 411.7265625 C-37.31186529 413.58100098 -37.31186529 413.58100098 -34.3125 414.37109375 C-32.27232138 413.95254164 -30.23352434 413.5237794 -28.20898438 413.03515625 C0.88960413 406.09296782 29.584893 410.90809938 55.50390625 425.40625 C82.2354422 441.9043636 99.5629835 466.87183202 106.91015625 497.296875 C108.64955534 505.73014883 108.64955534 505.73014883 106.14336967 510.0048641 C102.89727237 513.13247782 100.30361299 513.0692941 96.02249146 513.00029945 C95.24242257 513.00756666 94.46235368 513.01483386 93.65864635 513.02232128 C91.0286202 513.04065839 88.40003652 513.02317636 85.77001953 513.00601196 C83.87200229 513.01176973 81.97399062 513.01970852 80.07599068 513.02964818 C74.84787587 513.0505921 69.62021524 513.04017209 64.39209843 513.02471709 C58.75874254 513.01343832 53.12546663 513.030849 47.49212646 513.0446167 C36.45149381 513.06689082 25.41103077 513.06202932 14.37039137 513.04755349 C5.40025403 513.03627766 -3.56983565 513.03472317 -12.53997803 513.04017258 C-13.81494735 513.04093874 -15.08991667 513.04170491 -16.40352142 513.04249429 C-18.99331237 513.04409286 -21.58310331 513.04571392 -24.17289424 513.04735725 C-47.78412069 513.06121991 -71.39523329 513.04682537 -95.00644061 513.02064426 C-116.57009859 512.99691541 -138.13360894 512.99903852 -159.69726562 513.02294922 C-183.91276174 513.04971051 -208.12815285 513.06025358 -232.34366798 513.0448879 C-234.9241193 513.0432951 -237.50457063 513.04172324 -240.08502197 513.04017258 C-241.3547699 513.0394012 -242.62451782 513.03862982 -243.93274295 513.03783507 C-252.89575418 513.03351158 -261.85871317 513.04081859 -270.82171631 513.05257034 C-281.73942812 513.06656985 -292.65696012 513.0628491 -303.57465124 513.03616662 C-309.14880875 513.02299415 -314.72266607 513.01793445 -320.29682159 513.03441238 C-325.39438054 513.04925392 -330.49135958 513.04121984 -335.58886552 513.01452462 C-337.43805879 513.00891497 -339.28730053 513.01183529 -341.13646293 513.02390356 C-343.64084616 513.0390009 -346.14321535 513.02362955 -348.64749146 513.00029945 C-349.73701264 513.0178582 -349.73701264 513.0178582 -350.84854436 513.03577167 C-354.5993441 512.96541585 -356.04008776 512.63716271 -358.76763725 509.97312582 C-361.78468209 504.89147865 -360.19950948 499.87146131 -358.80371094 494.36328125 C-351.8327748 469.09794434 -336.63493735 447.72214335 -313.87109375 434.2890625 C-302.86416273 428.21531371 -291.10924652 423.14305314 -278.484375 422.03515625 C-271.49805144 421.67234177 -271.49805144 421.67234177 -265.296875 418.890625 C-264.22216452 417.57437605 -263.19471108 416.21868927 -262.20703125 414.8359375 C-242.20153656 388.80817019 -202.59841447 373.98158786 -171.24438477 369.38916016 C-157.49457951 367.59719741 -143.03827299 367.35022022 -129.3125 369.37109375 C-129.82039062 368.17355469 -130.32828125 366.97601563 -130.8515625 365.7421875 C-132.66489047 361.4591953 -134.46567236 357.17104503 -136.26074219 352.88037109 C-136.90949305 351.33258526 -137.56067158 349.78581127 -138.21582031 348.24072266 C-144.59376803 333.18104896 -149.47594995 317.48564085 -149.359375 301 C-149.35260742 299.75420166 -149.34583984 298.50840332 -149.33886719 297.22485352 C-149.32581543 295.81224243 -149.32581543 295.81224243 -149.3125 294.37109375 C-150.72165932 294.3810865 -150.72165932 294.3810865 -152.1592865 294.39128113 C-161.08665241 294.45254785 -170.01397472 294.49728236 -178.94150448 294.52653027 C-183.5293713 294.54207322 -188.11706611 294.56309891 -192.70483398 294.59741211 C-197.14636954 294.63041725 -201.58774145 294.64803181 -206.02939034 294.65572548 C-207.70955539 294.66119622 -209.38971323 294.6718747 -211.06980705 294.68828392 C-248.21568395 295.03608787 -282.07605785 281.46504291 -309.3125 256.37109375 C-310.52486328 255.28248047 -310.52486328 255.28248047 -311.76171875 254.171875 C-337.69049219 229.73272589 -352.04946827 193.54378956 -353.59246826 158.34082031 C-353.73497209 153.34034244 -353.73109716 148.34188275 -353.7109375 143.33984375 C-353.7129669 141.52095423 -353.71588546 139.7020655 -353.71963501 137.88317871 C-353.72399973 134.12207074 -353.71780794 130.36117994 -353.70361328 126.60009766 C-353.68632528 121.78631569 -353.69652156 116.9730285 -353.71433067 112.15926361 C-353.72516042 108.4257634 -353.7217293 104.69238128 -353.7139473 100.95887756 C-353.71195323 99.18229614 -353.71437654 97.40570385 -353.72138596 95.62913513 C-353.72900892 93.16066794 -353.71739392 90.69301579 -353.70068359 88.22460938 C-353.70979263 87.13689491 -353.70979263 87.13689491 -353.71908569 86.02720642 C-353.66419081 81.64767327 -353.0049161 78.85558414 -350.3125 75.37109375 C-347.18081658 73.80525204 -343.83921361 74.21491132 -340.40063477 74.20996094 C-339.58230164 74.20499603 -338.76396851 74.20003113 -337.9208374 74.19491577 C-335.19851851 74.18025357 -332.47625825 74.17347871 -329.75390625 74.16796875 C-327.85172017 74.16221226 -325.94953409 74.15645459 -324.04734802 74.1506958 C-320.04319998 74.14016864 -316.03907206 74.13433996 -312.03491211 74.13085938 C-306.95633653 74.1254286 -301.87803645 74.10152621 -296.79954624 74.07288742 C-292.85873203 74.05404208 -288.91798058 74.04904355 -284.97712517 74.0475235 C-283.10883039 74.0445358 -281.24053564 74.03664249 -279.37228584 74.02333832 C-263.36574333 73.91767013 -247.53769864 75.20678298 -232.1875 80.05859375 C-231.36967041 80.31133057 -230.55184082 80.56406738 -229.70922852 80.82446289 C-205.60810232 88.5754969 -182.35944655 103.68158877 -166.3125 123.37109375 C-165.52746094 124.33015625 -164.74242187 125.28921875 -163.93359375 126.27734375 C-157.85070466 133.85956125 -152.8066704 141.74880467 -148.3125 150.37109375 C-147.70535156 151.51964844 -147.09820312 152.66820312 -146.47265625 153.8515625 C-135.69740216 175.07793703 -133.16124496 197.98536172 -131.3125 221.37109375 C-130.50943646 218.81171187 -129.72016016 216.2492241 -128.9375 213.68359375 C-128.71578125 212.98169922 -128.4940625 212.27980469 -128.265625 211.55664062 C-124.67711181 199.68288375 -124.02180786 187.88261038 -124.00753975 175.57647324 C-124.003808 172.982487 -123.98689886 170.38886065 -123.96678162 167.79495239 C-123.91202585 160.42912577 -123.88087837 153.06324814 -123.85620117 145.69726562 C-123.84011005 141.16281359 -123.80967602 136.62861947 -123.77143669 132.09430313 C-123.7599769 130.39072583 -123.75385805 128.68710202 -123.75375557 126.98348618 C-123.75087303 91.81408789 -112.99859039 59.82034933 -88.28515625 34.25 C-64.33328643 10.49135535 -33.15765559 0.08902111 0 0 Z " transform="translate(382.3125,-0.37109375)" style="mix-blend-mode: overlay; isolation: isolate;" fill="#192336"/>
  <path d="M0 0 C8.99817206 -0.04667557 17.9963014 -0.08204589 26.99456882 -0.10362434 C31.17440174 -0.11398939 35.35415084 -0.12801266 39.53393555 -0.15087891 C43.57993817 -0.17287063 47.62586101 -0.18462309 51.67191887 -0.18975449 C53.20300487 -0.19340365 54.73408732 -0.20052677 56.26513863 -0.21146011 C69.98755267 -0.30540943 83.20496681 0.74290991 96.4375 4.6875 C97.3229248 4.94732666 98.20834961 5.20715332 99.12060547 5.47485352 C130.66242604 15.03737016 157.44822539 36.21589793 173.125 65.3515625 C181.77041722 81.9697763 188.21153256 99.92171087 188.11352539 118.86303711 C188.11367142 119.61508423 188.11381744 120.36713135 188.1139679 121.14196777 C188.11327662 123.60379011 188.10552131 126.06553479 188.09765625 128.52734375 C188.09578928 130.2436977 188.09436669 131.96005219 188.09336853 133.67640686 C188.08956533 138.17592867 188.07975398 142.67541779 188.06866455 147.17492676 C188.05840302 151.77351438 188.05386078 156.37210733 188.04882812 160.97070312 C188.03812959 169.98048305 188.02107977 178.9902388 188 188 C178.88871465 188.0467001 169.7774716 188.08205799 160.66609192 188.10362434 C156.43360107 188.11398419 152.20119315 188.12799749 147.96875 188.15087891 C143.87087205 188.17288976 139.77307297 188.18462695 135.67514038 188.18975449 C134.12534344 188.19340032 132.57554995 188.20051647 131.02578735 188.21146011 C117.68192167 188.30178938 104.13490606 187.81845771 91.3125 183.75 C90.6102832 183.53456543 89.90806641 183.31913086 89.18457031 183.09716797 C82.50732961 180.97507353 76.23941425 178.18241481 70 175 C68.93265625 174.47664062 67.8653125 173.95328125 66.765625 173.4140625 C36.89578535 158.19330689 16.16846741 131.17720644 5.75 99.75 C5.51555176 99.06107666 5.28110352 98.37215332 5.03955078 97.66235352 C-1.16063362 77.80885566 -0.37638649 57.31966852 -0.20599365 36.7824707 C-0.17486659 32.62520981 -0.16151084 28.46789162 -0.14648438 24.31054688 C-0.11466299 16.20687717 -0.0637129 8.10348157 0 0 Z " style="fill: rgb(175, 249, 152); isolation: isolate;" transform="translate(45,90)"/>
  <path d="M0 0 C1.30089569 0.00007553 2.60179138 0.00015106 3.94210815 0.00022888 C5.34698526 0.00533438 6.75186197 0.01055035 8.15673828 0.01586914 C9.60547842 0.01773616 11.0542192 0.01915872 12.50296021 0.02015686 C16.30051441 0.02395966 20.09802986 0.03377066 23.89556885 0.04486084 C27.77689083 0.05512324 31.65821912 0.0596648 35.53955078 0.06469727 C43.14373504 0.07539509 50.74788746 0.09244441 58.35205078 0.11352539 C58.42238363 7.49523205 58.47527555 14.87686341 58.5074873 22.25884056 C58.52296797 25.68871492 58.5438718 29.11835572 58.57836914 32.5480957 C58.94241952 69.77936697 58.94241952 69.77936697 52.16455078 86.86352539 C51.86339355 87.64663086 51.56223633 88.42973633 51.25195312 89.23657227 C46.50198976 101.19076872 40.00022286 111.5483367 31.35205078 121.11352539 C30.53091797 122.02875977 29.70978516 122.94399414 28.86376953 123.88696289 C11.76252545 141.97627886 -13.16449896 154.02531156 -38.11369324 155.28907776 C-41.87148494 155.34301368 -45.62427122 155.33881131 -49.38232422 155.30883789 C-50.75522656 155.30509636 -52.12813161 155.3022548 -53.5010376 155.30026245 C-57.07169285 155.29271552 -60.642179 155.27314683 -64.21276855 155.25085449 C-67.87343052 155.23020051 -71.53412047 155.22121943 -75.19482422 155.21118164 C-82.34593403 155.18989009 -89.49693044 155.15586581 -96.64794922 155.11352539 C-96.69457852 147.106609 -96.72997215 139.09975069 -96.75157356 131.09273148 C-96.76194848 127.37353928 -96.7759905 123.65444094 -96.79882812 119.93530273 C-96.82078377 116.33669887 -96.83256496 112.73818448 -96.8377037 109.13951874 C-96.84312102 107.11912583 -96.85869627 105.09876821 -96.87454224 103.07843018 C-96.87788379 75.19784308 -86.37914196 49.75157744 -66.89794922 29.86352539 C-49.55988484 12.9075287 -24.65773177 -0.04797224 0 0 Z " transform="translate(372.64794921875,15.886474609375)" style="fill: rgb(175, 249, 152);"/>
</svg>