<?xml version="1.0" encoding="utf-8"?>
<svg version="1.1" xmlns="http://www.w3.org/2000/svg" width="512" height="512" style="isolation: isolate;">
  <g>
    <path d="M 382.312 -0.371 C 384.057 -0.38 385.801 -0.389 387.546 -0.398 C 391.177 -0.415 394.807 -0.423 398.438 -0.426 C 403.09 -0.431 407.741 -0.469 412.392 -0.514 C 415.983 -0.544 419.574 -0.551 423.165 -0.552 C 424.881 -0.556 426.597 -0.569 428.313 -0.59 C 430.704 -0.617 433.093 -0.612 435.484 -0.599 C 436.543 -0.622 436.543 -0.622 437.622 -0.644 C 441.129 -0.592 442.75 -0.215 445.438 2.095 C 447.359 5.668 447.501 8.025 447.502 12.075 C 447.51 13.115 447.51 13.115 447.518 14.177 C 447.531 16.466 447.514 18.754 447.496 21.043 C 447.496 22.652 447.498 24.261 447.5 25.869 C 447.502 29.248 447.489 32.626 447.467 36.005 C 447.438 40.282 447.441 44.558 447.454 48.835 C 447.461 52.166 447.453 55.495 447.44 58.825 C 447.436 60.399 447.435 61.972 447.439 63.545 C 447.459 77.876 446.18 92.453 441.375 106.063 C 441.123 106.792 440.872 107.521 440.613 108.272 C 435.878 121.391 428.939 133.303 420 144 C 419.169 144.995 418.337 145.99 417.48 147.016 C 407.196 158.933 394.916 167.777 381 175 C 380.1 175.471 379.2 175.941 378.273 176.426 C 372.847 179.074 367.271 180.96 361.5 182.688 C 360.824 182.89 360.148 183.093 359.452 183.302 C 348.452 186.448 337.886 187.282 326.488 187.195 C 325.024 187.192 323.56 187.189 322.096 187.187 C 318.281 187.179 314.465 187.16 310.65 187.137 C 306.741 187.117 302.832 187.108 298.924 187.098 C 291.282 187.076 283.641 187.042 276 187 C 275.936 187.886 275.872 188.772 275.807 189.684 C 275.677 191.433 275.677 191.433 275.545 193.216 C 275.461 194.37 275.377 195.524 275.29 196.713 C 274.932 200.768 274.287 204.662 273.375 208.625 C 273.205 209.374 273.034 210.124 272.859 210.896 C 270.011 222.746 265.414 233.997 260.375 245.063 C 247.824 272.692 247.504 304.461 257.41 332.945 C 259.572 338.652 262.194 344.163 264.752 349.7 C 272 365.543 272 365.543 272 373 C 272.611 373.103 273.222 373.206 273.851 373.312 C 280.072 374.446 285.72 376.162 291.562 378.563 C 292.856 379.091 292.856 379.091 294.175 379.63 C 312.634 387.33 328.596 397.517 343.082 411.355 C 345.001 413.21 345.001 413.21 348 414 C 350.04 413.581 352.079 413.153 354.104 412.664 C 383.202 405.722 411.897 410.537 437.816 425.035 C 464.548 441.533 481.875 466.501 489.223 496.926 C 490.962 505.359 490.962 505.359 488.456 509.634 C 485.21 512.761 482.616 512.698 478.335 512.629 C 477.555 512.636 476.775 512.644 475.971 512.651 C 473.341 512.67 470.713 512.652 468.083 512.635 C 466.184 512.641 464.286 512.649 462.388 512.659 C 457.16 512.679 451.933 512.669 446.705 512.654 C 441.071 512.642 435.438 512.66 429.805 512.674 C 418.764 512.696 407.724 512.691 396.683 512.676 C 387.713 512.665 378.743 512.664 369.773 512.669 C 368.498 512.67 367.223 512.671 365.909 512.671 C 363.319 512.673 360.729 512.675 358.14 512.676 C 334.528 512.69 310.917 512.676 287.306 512.65 C 265.742 512.626 244.179 512.628 222.615 512.652 C 198.4 512.679 174.184 512.689 149.969 512.674 C 147.388 512.672 144.808 512.671 142.227 512.669 C 140.958 512.668 139.688 512.668 138.38 512.667 C 129.417 512.662 120.454 512.67 111.491 512.681 C 100.573 512.695 89.656 512.692 78.738 512.665 C 73.164 512.652 67.59 512.647 62.016 512.663 C 56.918 512.678 51.821 512.67 46.724 512.643 C 44.874 512.638 43.025 512.641 41.176 512.653 C 38.672 512.668 36.169 512.653 33.665 512.629 C 32.575 512.647 32.575 512.647 31.464 512.665 C 27.713 512.594 26.272 512.266 23.545 509.602 C 20.528 504.52 22.113 499.5 23.509 493.992 C 30.48 468.727 45.678 447.351 68.441 433.918 C 79.448 427.844 91.203 422.772 103.828 421.664 C 110.814 421.301 110.814 421.301 117.016 418.52 C 118.09 417.203 119.118 415.848 120.105 414.465 C 140.111 388.437 179.714 373.61 211.068 369.018 C 224.818 367.226 239.274 366.979 253 369 C 252.492 367.802 251.984 366.605 251.461 365.371 C 249.648 361.088 247.847 356.8 246.052 352.509 C 245.403 350.961 244.752 349.415 244.097 347.87 C 237.719 332.81 232.837 317.115 232.953 300.629 C 232.96 299.383 232.967 298.137 232.974 296.854 C 232.987 295.441 232.987 295.441 233 294 C 231.591 294.01 231.591 294.01 230.153 294.02 C 221.226 294.081 212.299 294.126 203.371 294.155 C 198.783 294.171 194.195 294.192 189.608 294.226 C 185.166 294.259 180.725 294.277 176.283 294.285 C 174.603 294.29 172.923 294.301 171.243 294.317 C 134.097 294.665 100.236 281.094 73 256 C 71.788 254.911 71.788 254.911 70.551 253.801 C 44.622 229.362 30.263 193.173 28.72 157.97 C 28.578 152.969 28.581 147.971 28.602 142.969 C 28.6 141.15 28.597 139.331 28.593 137.512 C 28.588 133.751 28.595 129.99 28.609 126.229 C 28.626 121.415 28.616 116.602 28.598 111.788 C 28.587 108.055 28.591 104.321 28.599 100.588 C 28.601 98.811 28.598 97.035 28.591 95.258 C 28.583 92.79 28.595 90.322 28.612 87.854 C 28.603 86.766 28.603 86.766 28.593 85.656 C 28.648 81.277 29.308 78.484 32 75 C 35.132 73.434 38.473 73.844 41.912 73.839 C 42.73 73.834 43.549 73.829 44.392 73.824 C 47.114 73.809 49.836 73.802 52.559 73.797 C 54.461 73.791 56.363 73.785 58.265 73.78 C 62.269 73.769 66.273 73.763 70.278 73.76 C 75.356 73.754 80.434 73.73 85.513 73.702 C 89.454 73.683 93.395 73.678 97.335 73.676 C 99.204 73.673 101.072 73.666 102.94 73.652 C 118.947 73.547 134.775 74.836 150.125 79.688 C 150.943 79.94 151.761 80.193 152.603 80.453 C 176.704 88.204 199.953 103.31 216 123 C 216.785 123.959 217.57 124.918 218.379 125.906 C 224.462 133.488 229.506 141.378 234 150 C 234.607 151.149 235.214 152.297 235.84 153.48 C 246.615 174.707 249.151 197.614 251 221 C 251.803 218.441 252.592 215.878 253.375 213.313 C 253.597 212.611 253.818 211.909 254.047 211.186 C 257.635 199.312 258.291 187.512 258.305 175.205 C 258.309 172.611 258.326 170.018 258.346 167.424 C 258.4 160.058 258.432 152.692 258.456 145.326 C 258.472 140.792 258.503 136.258 258.541 131.723 C 258.553 130.02 258.559 128.316 258.559 126.612 C 258.562 91.443 269.314 59.449 294.027 33.879 C 317.979 10.12 349.155 -0.282 382.312 -0.371 Z" style="mix-blend-mode: overlay; isolation: isolate;" fill="#c1c1c1"/>
  </g>
</svg>